<mxfile host="app.diagrams.net" agent="Mozilla/5.0 (Windows NT 10.0; Win64; x64) AppleWebKit/537.36 (KHTML, like Gecko) Chrome/135.0.0.0 Safari/537.36 Edg/135.0.0.0" version="26.2.9">
  <diagram name="第 1 页" id="GcnA6wjFXBG9Ph_BxtGx">
    <mxGraphModel dx="1420" dy="752" grid="1" gridSize="10" guides="1" tooltips="1" connect="1" arrows="1" fold="1" page="1" pageScale="1" pageWidth="827" pageHeight="1169" math="0" shadow="0">
      <root>
        <mxCell id="0" />
        <mxCell id="1" parent="0" />
        <mxCell id="0dT4HY--E5Q1HbB4VXsv-3" value="" style="edgeStyle=orthogonalEdgeStyle;rounded=0;orthogonalLoop=1;jettySize=auto;html=1;" edge="1" parent="1" source="0dT4HY--E5Q1HbB4VXsv-1" target="0dT4HY--E5Q1HbB4VXsv-2">
          <mxGeometry relative="1" as="geometry" />
        </mxCell>
        <mxCell id="0dT4HY--E5Q1HbB4VXsv-1" value="提前校验信用" style="rounded=0;whiteSpace=wrap;html=1;" vertex="1" parent="1">
          <mxGeometry width="120" height="60" as="geometry" />
        </mxCell>
        <mxCell id="0dT4HY--E5Q1HbB4VXsv-5" value="" style="edgeStyle=orthogonalEdgeStyle;rounded=0;orthogonalLoop=1;jettySize=auto;html=1;" edge="1" parent="1" source="0dT4HY--E5Q1HbB4VXsv-2" target="0dT4HY--E5Q1HbB4VXsv-4">
          <mxGeometry relative="1" as="geometry" />
        </mxCell>
        <mxCell id="0dT4HY--E5Q1HbB4VXsv-2" value="质押式逆回购——预校验信用" style="whiteSpace=wrap;html=1;rounded=0;" vertex="1" parent="1">
          <mxGeometry y="100" width="120" height="60" as="geometry" />
        </mxCell>
        <mxCell id="0dT4HY--E5Q1HbB4VXsv-4" value="查询交易历史记录" style="whiteSpace=wrap;html=1;rounded=0;" vertex="1" parent="1">
          <mxGeometry x="150" y="100" width="120" height="60" as="geometry" />
        </mxCell>
      </root>
    </mxGraphModel>
  </diagram>
</mxfile>
